<?xml version="1.0" standalone="no"?>
<!DOCTYPE svg PUBLIC "-//W3C//DTD SVG 20010904//EN"
 "http://www.w3.org/TR/2001/REC-SVG-20010904/DTD/svg10.dtd">
<svg version="1.0" xmlns="http://www.w3.org/2000/svg"
 width="128.000000pt" height="128.000000pt" viewBox="0 0 128.000000 128.000000"
 preserveAspectRatio="xMidYMid meet">

<g transform="translate(0.000000,128.000000) scale(0.100000,-0.100000)"
fill="#000000" stroke="none">
<path d="M492 1220 c-109 -29 -187 -74 -272 -160 -87 -86 -131 -163 -160 -276
-36 -141 -18 -294 52 -427 42 -81 164 -203 245 -245 133 -70 286 -88 427 -52
113 29 190 73 276 160 87 86 131 163 160 276 36 141 18 294 -52 427 -42 81
-164 203 -245 245 -132 69 -291 88 -431 52z m254 -31 c98 -17 213 -79 288
-155 271 -270 195 -728 -148 -894 -480 -232 -978 266 -746 746 109 226 355
349 606 303z"/>
<path d="M510 935 c-98 -31 -160 -115 -160 -218 0 -99 47 -172 135 -213 66
-31 125 -31 194 2 l55 25 92 -92 c84 -83 114 -101 114 -66 0 7 -40 52 -89 101
l-89 89 24 45 c48 90 20 226 -59 287 -37 28 -114 56 -151 54 -12 0 -41 -7 -66
-14z m163 -53 c103 -60 130 -203 54 -289 -60 -69 -145 -89 -222 -54 -76 35
-115 95 -115 178 0 143 161 237 283 165z"/>
</g>
</svg>
